<svg xmlns="http://www.w3.org/2000/svg" width="24" height="24" viewBox="0 0 24 24" fill="none">
  <g clip-path="url(#clip0_1_106040)">
    <path d="M22.7288 14.6041C22.7288 14.6041 22.7288 14.6041 22.7288 14.6041L22.2055 14.302C20.4748 13.3028 20.4703 10.6999 22.2055 9.69806L22.7289 9.39595C23.4004 9.0082 23.6313 8.14645 23.2436 7.47502L21.5404 4.52508C21.1527 3.85364 20.291 3.62287 19.6195 4.01039L19.0984 4.31123C17.3795 5.30348 15.1091 4.02783 15.1091 2.01309V1.40625C15.1091 0.630844 14.4783 0 13.7029 0H10.2966C9.52123 0 8.89038 0.630844 8.89038 1.40625V2.013C8.89038 4.02825 6.61957 5.3032 4.90109 4.31114L4.38003 4.0103C3.70695 3.62161 2.84773 3.85186 2.45904 4.52498L0.755932 7.47492C0.368229 8.14636 0.599089 9.00811 1.27067 9.39586L1.79398 9.69797C3.5246 10.6972 3.5291 13.3001 1.79398 14.3019L1.27057 14.604C0.599042 14.9917 0.368182 15.8535 0.755885 16.5249L2.45899 19.4749C2.8467 20.1464 3.7084 20.3774 4.37993 19.9896L4.90099 19.6887C6.62074 18.696 8.89029 19.9747 8.89029 21.9869V22.5938C8.89029 23.3692 9.52113 24 10.2965 24H13.7028C14.4782 24 15.1091 23.3692 15.1091 22.5938V21.987C15.1091 19.9719 17.3797 18.6967 19.0984 19.6889L19.6195 19.9897C20.2909 20.3774 21.1527 20.1465 21.5404 19.475L23.2435 16.5251C23.6321 15.852 23.4019 14.9927 22.7288 14.6041ZM20.3225 18.7718L19.8015 18.471C17.1499 16.9401 13.7028 18.8845 13.7028 21.987V22.5938H10.2965V21.987C10.2965 18.8807 6.84598 16.942 4.19787 18.471L3.67681 18.7718L1.97365 15.8219L2.49701 15.5198C3.73568 14.8046 4.50303 13.4627 4.49974 12.0169V12V11.9823C4.50307 10.5374 3.73568 9.19542 2.49701 8.48025L1.9737 8.17814L3.67681 5.2282L4.19787 5.52905C6.84935 7.05998 10.2965 5.11552 10.2965 2.01305V1.40625H13.7028V2.013C13.7028 5.08673 17.1251 7.07414 19.8015 5.529L20.3225 5.22816L22.0257 8.17809L21.5023 8.4802C18.8301 10.023 18.8339 13.9792 21.5023 15.5198L22.0257 15.8219L20.3225 18.7718Z" fill="#FFA155"/>
    <path d="M11.9996 5.9707C8.67507 5.9707 5.97034 8.67539 5.97034 12C5.97034 15.3245 8.67507 18.0292 11.9996 18.0292C15.3242 18.0292 18.0289 15.3245 18.0289 12C18.0289 8.67539 15.3242 5.9707 11.9996 5.9707ZM11.9996 16.623C9.45048 16.623 7.37659 14.5491 7.37659 12C7.37659 9.4508 9.45048 7.37695 11.9996 7.37695C14.5488 7.37695 16.6227 9.4508 16.6227 12C16.6227 14.5491 14.5488 16.623 11.9996 16.623Z" fill="#444CFC"/>
    <path d="M13.6239 10.3651L11.2432 12.1322L10.4692 11.3075C10.2034 11.0243 9.75838 11.0102 9.47526 11.276C9.19209 11.5417 9.17798 11.9867 9.44376 12.2698L10.6465 13.5513C10.891 13.8119 11.2918 13.8474 11.5782 13.6348L14.462 11.4943C14.7738 11.2628 14.839 10.8224 14.6075 10.5106C14.3761 10.1989 13.9357 10.1337 13.6239 10.3651Z" fill="#444CFC"/>
  </g>
  <defs>
    <clipPath id="clip0_1_106040">
      <rect width="24" height="24" fill="white"/>
    </clipPath>
  </defs>
</svg>