<svg xmlns="http://www.w3.org/2000/svg" width="24" height="24" viewBox="0 0 24 24" fill="none">
<g clip-path="url(#clip0_1_106053)">
<path d="M23.9716 1.79189C23.9197 0.838551 23.1615 0.0804415 22.2081 0.0284102C20.2845 -0.0766835 16.5202 0.025551 12.9208 1.88729C11.0858 2.83641 9.14522 4.44558 7.59652 6.30221C7.57744 6.32508 7.55888 6.3481 7.53994 6.37102L4.02525 6.64252C3.44672 6.68724 2.93142 6.99047 2.61145 7.47441L0.213611 11.1012C-0.0290606 11.4683 -0.0676387 11.9276 0.110346 12.3299C0.288377 12.7323 0.654189 13.0127 1.08896 13.0801L4.0501 13.5387C4.03964 13.5962 4.02914 13.6538 4.01953 13.7113C3.92095 14.301 4.11633 14.9073 4.54224 15.3331L8.66686 19.4578C9.01997 19.8109 9.49711 20.0056 9.98602 20.0056C10.0867 20.0056 10.188 19.9973 10.2887 19.9805C10.3463 19.9709 10.4038 19.9604 10.4614 19.9499L10.92 22.9111C10.9874 23.3459 11.2678 23.7117 11.67 23.8897C11.8374 23.9638 12.0146 24.0003 12.1909 24.0003C12.4386 24.0003 12.6845 23.9282 12.8988 23.7865L16.5256 21.3886C17.0096 21.0686 17.3128 20.5533 17.3574 19.9748L17.6289 16.4602C17.6518 16.4412 17.6749 16.4227 17.6978 16.4036C19.5544 14.8549 21.1636 12.9143 22.1127 11.0793C23.9745 7.47971 24.0766 3.71541 23.9716 1.79189ZM15.75 20.2155L12.2808 22.5092L11.8338 19.6234C13.3 19.1923 14.7505 18.5018 16.1323 17.5768L15.9555 19.8664C15.9444 20.0093 15.8695 20.1365 15.75 20.2155ZM9.66122 18.4635L5.53655 14.3388C5.43131 14.2335 5.38266 14.0856 5.40652 13.9432C5.52914 13.2099 5.71969 12.5119 5.95556 11.8543L12.1444 18.0431C11.3546 18.326 10.6472 18.4948 10.0568 18.5935C9.91416 18.6172 9.76645 18.5687 9.66122 18.4635ZM4.13358 8.0446L6.42314 7.86774C5.49811 9.24957 4.80764 10.7 4.37653 12.1663L1.49072 11.7193L3.7845 8.25C3.86353 8.13047 3.9908 8.05561 4.13358 8.0446ZM16.7971 15.3236C15.6612 16.2711 14.5585 16.9564 13.5422 17.4523L6.54745 10.4576C7.19705 9.13083 7.98985 8.02604 8.67638 7.203C10.1096 5.4848 11.8921 4.00257 13.5669 3.13632C16.8704 1.42758 20.3509 1.33557 22.1316 1.4325C22.3673 1.44535 22.5547 1.6328 22.5675 1.86854C22.6646 3.64922 22.5724 7.12969 20.8637 10.4332C19.9975 12.108 18.5153 13.8904 16.7971 15.3236Z" fill="#FFA155"/>
<path d="M16.4401 11.0739C17.3402 11.0738 18.2407 10.7311 18.9259 10.0458C19.5899 9.38186 19.9556 8.49901 19.9556 7.56001C19.9556 6.62101 19.5899 5.73817 18.9259 5.07418C17.5552 3.70342 15.3249 3.70351 13.9543 5.07418C13.2902 5.73817 12.9246 6.62101 12.9246 7.56001C12.9246 8.49901 13.2903 9.38186 13.9543 10.0458C14.6397 10.7312 15.5397 11.0739 16.4401 11.0739ZM14.9485 6.06849C15.3597 5.65726 15.8999 5.45167 16.44 5.45167C16.9802 5.45167 17.5203 5.65726 17.9315 6.06849C18.3299 6.46689 18.5493 6.99657 18.5493 7.55996C18.5493 8.12335 18.3299 8.65309 17.9315 9.05148C17.1091 9.8739 15.7709 9.87386 14.9485 9.05148C14.5501 8.65309 14.3307 8.1234 14.3307 7.56001C14.3307 6.99662 14.5501 6.46689 14.9485 6.06849Z" fill="#444CFC"/>
<path d="M0.717262 19.7783C0.897215 19.7783 1.07717 19.7097 1.21442 19.5723L3.51003 17.2767C3.78462 17.0021 3.78462 16.557 3.51003 16.2824C3.23548 16.0078 2.79026 16.0078 2.51567 16.2824L0.220105 18.578C-0.0544883 18.8526 -0.0544883 19.2977 0.220105 19.5723C0.357355 19.7096 0.537309 19.7783 0.717262 19.7783Z" fill="#FFA155"/>
<path d="M5.61377 18.3861C5.33923 18.1115 4.89401 18.1115 4.61941 18.3861L0.205945 22.7996C-0.0686484 23.0742 -0.0686484 23.5194 0.205945 23.794C0.343242 23.9313 0.523148 23.9999 0.703101 23.9999C0.883055 23.9999 1.06301 23.9313 1.20026 23.794L5.61373 19.3805C5.88837 19.1059 5.88837 18.6607 5.61377 18.3861Z" fill="#FFA155"/>
<path d="M6.72335 20.4901L4.42775 22.7857C4.15315 23.0603 4.15315 23.5055 4.42775 23.7801C4.56504 23.9174 4.745 23.9861 4.9249 23.9861C5.10481 23.9861 5.28481 23.9174 5.42206 23.7801L7.71767 21.4845C7.99226 21.2099 7.99226 20.7647 7.71767 20.4901C7.44312 20.2155 6.9979 20.2155 6.72335 20.4901Z" fill="#FFA155"/>
</g>
<defs>
<clipPath id="clip0_1_106053">
<rect width="24" height="24" fill="white"/>
</clipPath>
</defs>
</svg>